<svg id="Capa_1" enable-background="new 0 0 512.003 512.003" height="512" viewBox="0 0 512.003 512.003" width="512" xmlns="http://www.w3.org/2000/svg"><g><path d="m418.122 96.935c-23.426-5.231-46.735 9.588-51.966 33.027-6.087 27.268 14.668 53.038 42.471 53.038 19.933 0 37.964-13.818 42.485-34.077 5.242-23.48-9.499-46.745-32.99-51.988z" fill="#d58577"/><path d="m451.112 148.92c-4.52 20.26-22.55 34.08-42.48 34.08v-87.12c3.13 0 6.31.34 9.49 1.05 23.49 5.25 38.23 28.51 32.99 51.99z" fill="#c56d59"/><path d="m351.002 187c0 8.28-6.72 15-15 15h-28.87c5.118-9.702 4.946-20.858.78-30h28.09c8.28 0 15 6.72 15 15z" fill="#ccf8ff"/><path d="m475.802 251.54-48.53 216.46h-149.4c-.04-16.29-10.42-31.38-26.48-36.75l11.19-104.35c2.32-21.6 20.47-40.21 45.74-40.21l36.49.83 13.86-62.12c7.25-32.43 39.31-52.76 71.65-45.54 32.37 7.22 52.72 39.29 45.48 71.68z" fill="#fc6581"/><path d="m475.802 251.54c-55.435 247.229-23.63 105.397-48.53 216.46h-18.64v-288.98c7.02-1.02 14.35-.8 21.69.84 32.37 7.22 52.72 39.29 45.48 71.68z" fill="#f4425c"/><path d="m426.68 333.762c-68.066-15.194-126.93 50.072-104.995 116.182l-42.538.51c-5.421-12.333-16.428-22.011-30.602-25.174-23.604-5.269-47.092 9.661-52.363 33.277v.001c-5.271 23.617 9.643 47.116 33.244 52.383 22.678 5.061 45.2-8.425 51.638-30.504l57.32-.696c47.25 55.979 140.099 34.749 156.457-38.551 10.828-48.509-19.613-96.593-68.161-107.428z" fill="#004071"/><path d="m497.002 285.6c8.28 0 15-6.72 15-15s-6.72-15-15-15h-38c-7.01 0-13.08 4.85-14.63 11.68l-15.189 67.037c-6.567-1.653-13.443-2.588-20.552-2.707v179.99c40.61-.66 76.96-28.97 86.21-70.41 8.481-38.006-8.274-74.619-37.734-94.415l13.874-61.175z" fill="#00244c"/><path d="m465.562 434.655c-7.211 32.313-39.184 52.731-71.558 45.505-32.318-7.213-52.645-39.24-45.418-71.614 7.181-32.17 39.19-52.728 71.559-45.505 32.317 7.213 52.644 39.24 45.417 71.614z" fill="#e6faff"/><path d="m465.562 434.66c-6.12 27.41-30.05 46.26-56.93 46.94v-119.99c37.779.994 65.152 36.209 56.93 73.05z" fill="#ccf8ff"/><circle cx="407.075" cy="421.601" fill="#004071" r="15"/><path d="m421.712 424.87c-1.43 6.45-6.84 11-13.08 11.65v-29.84c8.919.94 15.04 9.426 13.08 18.19z" fill="#00244c"/><path d="m150.432 416-4.45 81.81c-.44 7.96-7.01 14.19-14.98 14.19h-50c-7.96 0-14.54-6.23-14.98-14.18l-4.49-81.82z" fill="#fdbbab"/><path d="m150.432 416c-5.32 97.802-4.325 79.505-4.45 81.81-.44 7.96-7.01 14.19-14.98 14.19h-25.02v-96z" fill="#ffa58d"/><path d="m286.007 28.329c-11.459-24.536-40.741-35.178-65.28-23.717 0 0 0 0-.001 0-24.536 11.459-35.176 40.743-23.717 65.28 11.496 24.617 40.819 35.141 65.281 23.717 24.536-11.459 35.176-40.744 23.717-65.28z" fill="#ffa58d"/><path d="m181.002 406c0 8.284-6.716 15-15 15h-151c-8.284 0-15-6.716-15-15v-196c0-54.28 26.35-102.52 66.92-132.61 36.528-27.089 69.058-31.993 113.678-32.369z" fill="#84eef9"/><path d="m181.002 406c0 8.28-6.72 15-15 15h-60.02v-365.22c22.74-8.45 46.23-10.52 74.62-10.76z" fill="#22e0e0"/><path d="m252.51 471.129c-1.677 7.512-9.098 12.196-16.548 10.532-7.457-1.665-12.167-9.098-10.5-16.57 1.669-7.472 9.096-12.197 16.549-10.533 7.467 1.668 12.172 9.074 10.499 16.571z" fill="#e6faff"/><path d="m314.812 186.78c0 13.58-11.04 24.62-24.62 24.62-5.641-.465-93.945-7.74-111.06-9.15-1.85-.15-3.46-1.32-4.19-3.03l-62.1-145.79c22.176-7.027 44.578-8.271 69.785-8.423 5.008-.03 9.276 3.627 9.985 8.584l13.45 94.019 88.72 14.99c11.61 2.2 20.03 12.37 20.03 24.18z" fill="#22c7e0"/></g></svg>