<svg id="Layer_1" enable-background="new 0 0 512 512" height="512" viewBox="0 0 512 512" width="512" xmlns="http://www.w3.org/2000/svg"><g><g id="XMLID_5301_"><g id="XMLID_5303_"><g><path d="m138.935 512c-13.65 0-24.717-11.066-24.717-24.716v-197.56c0-13.65 11.066-24.716 24.717-24.716s24.717 11.066 24.717 24.716v197.559c0 13.651-11.067 24.717-24.717 24.717z" fill="#ffb69e"/></g></g><g id="XMLID_5302_"><g><path d="m199.039 512c-13.65 0-24.717-11.066-24.717-24.716v-197.56c0-13.65 11.066-24.716 24.717-24.716 13.65 0 24.717 11.066 24.717 24.716v197.559c-.001 13.651-11.067 24.717-24.717 24.717z" fill="#ffb69e"/></g></g></g><path d="m221.263 171.04c3.634 10.286 5.33 14.995 5.33 14.995l24.367 4.215 14.851-15.858s-9.029-25.338-13.955-39.675c-9.478-27.583-25.372-41.567-47.238-41.567h-70.785c-21.865 0-37.759 13.985-47.237 41.566-4.933 14.354-13.956 39.676-13.956 39.676l15.81 16.277 23.342-4.423s1.334-3.705 5.396-15.206l-29.019 152.137c-1.361 7.028 4.055 13.521 11.142 13.521h139.827c7.112 0 12.504-6.487 11.142-13.521z" fill="#ff6473"/><path d="m72.64 174.392c-15.547 43.597-34.178 94.572-34.428 95.255-3.875 10.597 1.575 22.329 12.172 26.203 10.593 3.873 22.327-1.573 26.203-12.172.278-.76 35.205-97.433 35.205-97.433z" fill="#ffb69e"/><path d="m300.24 269.648c-.25-.684-18.882-51.659-34.429-95.255l-39.218 11.642s34.994 96.885 35.272 97.644c3.881 10.614 15.622 16.04 26.203 12.172 10.597-3.875 16.047-15.606 12.172-26.203z" fill="#faab91"/><g id="XMLID_5297_"><path d="m402.893 512c-14.11 0-25.549-11.439-25.549-25.549v-204.215c0-14.11 11.439-25.549 25.549-25.549s25.549 11.439 25.549 25.549v204.215c0 14.11-11.439 25.549-25.549 25.549z" fill="#414b82"/></g><g id="XMLID_5298_"><path d="m341.219 512c-14.11 0-25.549-11.439-25.549-25.549v-204.215c0-14.11 11.439-25.549 25.549-25.549s25.549 11.439 25.549 25.549v204.215c0 14.11-11.439 25.549-25.549 25.549z" fill="#5f6e9b"/></g><path d="m428.607 77.912h-113.436c-28.077 0-51.031 22.489-51.17 50.132v45.481l21.291 5.776 21.291-5.776v-45.298c.041-4.051 4.125-7.733 8.589-7.733h.499v161.743h112.773c0-31.641 0-130.377 0-161.743h.164c4.299 0 7.952 3.534 7.996 7.726v45.306l21.291 5.776 21.291-5.776v-45.482c-.142-27.644-22.831-50.132-50.579-50.132z" fill="#64afff"/><ellipse cx="169.226" cy="62.684" fill="#ffb69e" rx="43.752" ry="43.752" transform="matrix(.987 -.16 .16 .987 -7.856 27.917)"/><circle cx="371.592" cy="45.311" fill="#ffb69e" r="45.311"/><g><path d="m63.095 512c-5.601 0-10.142-4.54-10.142-10.142v-202.393c0-6.343-5.16-11.503-11.503-11.503-6.342 0-11.502 5.16-11.502 11.503v27.365c0 5.601-4.541 10.142-10.142 10.142s-10.142-4.54-10.142-10.142v-27.365c0-17.527 14.259-31.786 31.786-31.786s31.787 14.259 31.787 31.786v202.394c0 5.601-4.541 10.141-10.142 10.141z" fill="#b05f3f"/></g><g><path d="m448.905 512c-5.601 0-10.142-4.54-10.142-10.142v-196.308c0-17.527 14.259-31.786 31.786-31.786s31.787 14.259 31.787 31.786v27.365c0 5.601-4.541 10.142-10.142 10.142s-10.142-4.54-10.142-10.142v-27.365c0-6.343-5.16-11.503-11.503-11.503-6.342 0-11.502 5.16-11.502 11.503v196.309c0 5.601-4.541 10.141-10.142 10.141z" fill="#b05f3f"/></g><g fill="#ffb69e"><path d="m264.001 173.525v111.04c0 11.758 9.532 21.291 21.291 21.291s21.291-9.532 21.291-21.291v-111.04z"/><path d="m436.603 173.525v111.04c0 11.758 9.532 21.291 21.291 21.291s21.291-9.532 21.291-21.291v-111.04z"/></g></g></svg>