<svg id="Capa_1" enable-background="new 0 0 512 512" height="512" viewBox="0 0 512 512" width="512" xmlns="http://www.w3.org/2000/svg"><g><g><path d="m466.503 510.966c-4.268 0-7.726-3.459-7.726-7.726v-23.946c0-4.267 3.459-7.726 7.726-7.726s7.726 3.459 7.726 7.726v23.946c0 4.267-3.458 7.726-7.726 7.726z"/></g><g><path clip-rule="evenodd" d="m87.635 512h336.729c0-125.452 0-250.933 0-376.386-119.115 0-217.643 0-336.729 0z" fill="#eceaec" fill-rule="evenodd"/></g><g><path clip-rule="evenodd" d="m196.559 145.923c15.331 14.981 36.298 24.209 59.426 24.209s44.124-9.228 59.455-24.209c13.813-13.491 23.04-31.626 25.172-51.892.292-2.949.438-5.957.438-8.965.001-46.986-38.078-85.066-85.065-85.066s-85.065 38.08-85.065 85.066c0 3.008.146 6.016.467 8.965 2.132 20.266 11.36 38.4 25.172 51.892z" fill="#ff8086" fill-rule="evenodd"/></g><g><path clip-rule="evenodd" d="m87.635 145.923h108.924c-13.813-13.491-23.04-31.626-25.172-51.892h-97.885c-2.628 0-4.789 2.132-4.789 4.789v42.314c0 2.628 2.161 4.789 4.789 4.789z" fill="#6f6571" fill-rule="evenodd"/></g><g><path clip-rule="evenodd" d="m315.441 145.923h108.924 14.105c2.628 0 4.789-2.161 4.789-4.789v-42.314c0-2.657-2.161-4.789-4.789-4.789h-97.856c-2.133 20.266-11.361 38.4-25.173 51.892z" fill="#6f6571" fill-rule="evenodd"/></g><g><path clip-rule="evenodd" d="m87.635 166.831h144.755c-13.667-3.942-25.931-11.243-35.831-20.909h-108.924z" fill="#dad8db" fill-rule="evenodd"/></g><g><path clip-rule="evenodd" d="m279.61 166.831h118.006v345.169h26.749v-53.732-81.328-132.139-43.628-55.25h-108.924c-9.9 9.666-22.165 16.966-35.831 20.908z" fill="#dad8db" fill-rule="evenodd"/></g><g><path clip-rule="evenodd" d="m424.365 244.801h73.648v132.139h-73.648z" fill="#c8c5c9" fill-rule="evenodd"/></g><g><path clip-rule="evenodd" d="m424.365 512h70.056c1.986 0 3.592-1.635 3.592-3.621v-50.111h-73.648z" fill="#c8c5c9" fill-rule="evenodd"/></g><g><path clip-rule="evenodd" d="m424.365 244.801h73.648 9.9c2.249 0 4.088-1.811 4.088-4.059v-31.976c0-2.249-1.84-4.059-4.088-4.059h-83.547v40.094z" fill="#6f6571" fill-rule="evenodd"/></g><g><path clip-rule="evenodd" d="m475.264 376.94h22.748v-132.139h-73.647v21.58h50.899z" fill="#b6b1b7" fill-rule="evenodd"/></g><g><path clip-rule="evenodd" d="m475.264 512h19.157c1.986 0 3.592-1.635 3.592-3.621v-50.111h-22.748v21.551 32.181z" fill="#b6b1b7" fill-rule="evenodd"/></g><g><path clip-rule="evenodd" d="m87.635 512h-70.055c-1.986 0-3.621-1.635-3.621-3.621v-50.111h73.677v53.732z" fill="#c8c5c9" fill-rule="evenodd"/></g><g><path clip-rule="evenodd" d="m64.858 512h19.157c1.986 0 3.621-1.635 3.621-3.621v-50.111h-22.778v21.551z" fill="#b6b1b7" fill-rule="evenodd"/></g><path d="m283.582 77.339h-19.87v-19.84c0-4.267-3.459-7.726-7.726-7.726s-7.726 3.459-7.726 7.726v19.84h-19.84c-4.268 0-7.726 3.459-7.726 7.726s3.459 7.726 7.726 7.726h19.84v19.841c0 4.267 3.459 7.726 7.726 7.726s7.726-3.459 7.726-7.726v-19.84h19.87c4.268 0 7.726-3.459 7.726-7.726s-3.459-7.727-7.726-7.727z" fill="#eceaec"/><g><path clip-rule="evenodd" d="m147.354 255.927h37.349c2.307 0 4.147-1.84 4.147-4.147v-37.349c0-2.278-1.84-4.147-4.147-4.147h-37.349c-2.278 0-4.147 1.869-4.147 4.147v37.349c0 2.307 1.869 4.147 4.147 4.147z" fill="#9fd4fe" fill-rule="evenodd"/></g><g><path clip-rule="evenodd" d="m237.325 255.927h37.349c2.278 0 4.147-1.84 4.147-4.147v-37.349c0-2.278-1.869-4.147-4.147-4.147h-37.349c-2.307 0-4.147 1.869-4.147 4.147v37.349c.001 2.307 1.84 4.147 4.147 4.147z" fill="#9fd4fe" fill-rule="evenodd"/></g><g><path clip-rule="evenodd" d="m327.268 255.927h37.349c2.278 0 4.147-1.84 4.147-4.147v-37.349c0-2.278-1.869-4.147-4.147-4.147h-37.349c-2.278 0-4.147 1.869-4.147 4.147v37.349c0 2.307 1.869 4.147 4.147 4.147z" fill="#9fd4fe" fill-rule="evenodd"/></g><g><path clip-rule="evenodd" d="m327.268 337.868h37.349c2.278 0 4.147-1.869 4.147-4.147v-37.349c0-2.278-1.869-4.147-4.147-4.147h-37.349c-2.278 0-4.147 1.869-4.147 4.147v37.349c0 2.278 1.869 4.147 4.147 4.147z" fill="#9fd4fe" fill-rule="evenodd"/></g><g><path clip-rule="evenodd" d="m233.179 333.721c0 2.278 1.84 4.147 4.147 4.147h37.349c2.278 0 4.147-1.869 4.147-4.147v-37.349c0-2.278-1.869-4.147-4.147-4.147h-37.349c-2.307 0-4.147 1.869-4.147 4.147z" fill="#9fd4fe" fill-rule="evenodd"/></g><g><path clip-rule="evenodd" d="m147.354 337.868h37.349c2.307 0 4.147-1.869 4.147-4.147v-37.349c0-2.278-1.84-4.147-4.147-4.147h-37.349c-2.278 0-4.147 1.869-4.147 4.147v37.349c0 2.278 1.869 4.147 4.147 4.147z" fill="#9fd4fe" fill-rule="evenodd"/></g><g><path clip-rule="evenodd" d="m13.959 244.801h73.677v132.139h-73.677z" fill="#c8c5c9" fill-rule="evenodd"/></g><g><path clip-rule="evenodd" d="m87.635 244.801h-73.676-9.9c-2.249 0-4.059-1.811-4.059-4.059v-31.976c0-2.249 1.811-4.059 4.059-4.059h83.576z" fill="#6f6571" fill-rule="evenodd"/></g><g><path clip-rule="evenodd" d="m64.858 376.94h22.777v-132.139h-73.676v21.58h50.899z" fill="#b6b1b7" fill-rule="evenodd"/></g><g><path clip-rule="evenodd" d="m147.354 228.827h37.349c2.307 0 4.147 1.869 4.147 4.147v-18.543c0-2.278-1.84-4.147-4.147-4.147h-37.349c-2.278 0-4.147 1.869-4.147 4.147v18.543c0-2.278 1.869-4.147 4.147-4.147z" fill="#72bffc" fill-rule="evenodd"/></g><g><path clip-rule="evenodd" d="m237.325 228.827h37.349c2.278 0 4.147 1.869 4.147 4.147v-18.543c0-2.278-1.869-4.147-4.147-4.147h-37.349c-2.307 0-4.147 1.869-4.147 4.147v18.543c.001-2.278 1.84-4.147 4.147-4.147z" fill="#72bffc" fill-rule="evenodd"/></g><g><path clip-rule="evenodd" d="m327.268 228.827h37.349c2.278 0 4.147 1.869 4.147 4.147v-18.543c0-2.278-1.869-4.147-4.147-4.147h-37.349c-2.278 0-4.147 1.869-4.147 4.147v18.543c0-2.278 1.869-4.147 4.147-4.147z" fill="#72bffc" fill-rule="evenodd"/></g><g><path clip-rule="evenodd" d="m327.268 310.768h37.349c2.278 0 4.147 1.869 4.147 4.147v-18.543c0-2.278-1.869-4.147-4.147-4.147h-37.349c-2.278 0-4.147 1.869-4.147 4.147v18.543c0-2.278 1.869-4.147 4.147-4.147z" fill="#72bffc" fill-rule="evenodd"/></g><g><path clip-rule="evenodd" d="m237.325 310.768h37.349c2.278 0 4.147 1.869 4.147 4.147v-18.543c0-2.278-1.869-4.147-4.147-4.147h-37.349c-2.307 0-4.147 1.869-4.147 4.147v18.543c.001-2.278 1.84-4.147 4.147-4.147z" fill="#72bffc" fill-rule="evenodd"/></g><g><path clip-rule="evenodd" d="m147.354 310.768h37.349c2.307 0 4.147 1.869 4.147 4.147v-18.543c0-2.278-1.84-4.147-4.147-4.147h-37.349c-2.278 0-4.147 1.869-4.147 4.147v18.543c0-2.278 1.869-4.147 4.147-4.147z" fill="#72bffc" fill-rule="evenodd"/></g><g><path d="m184.703 263.653h-37.349c-6.547 0-11.873-5.326-11.873-11.873v-37.349c0-6.547 5.326-11.873 11.873-11.873h37.349c6.547 0 11.873 5.326 11.873 11.873v37.349c0 6.547-5.325 11.873-11.873 11.873zm-33.769-15.452h30.19v-30.19h-30.19zm33.769-30.19h.01z" fill="#6f6571"/></g><g><path d="m274.675 263.653h-37.35c-6.547 0-11.873-5.326-11.873-11.873v-37.349c0-6.547 5.326-11.873 11.873-11.873h37.35c6.547 0 11.873 5.326 11.873 11.873v37.349c0 6.547-5.326 11.873-11.873 11.873zm-33.771-15.452h30.191v-30.19h-30.191zm33.771-30.19h.01z" fill="#6f6571"/></g><g><path d="m364.617 263.653h-37.349c-6.547 0-11.873-5.326-11.873-11.873v-37.349c0-6.547 5.326-11.873 11.873-11.873h37.349c6.547 0 11.873 5.326 11.873 11.873v37.349c0 6.547-5.326 11.873-11.873 11.873zm-33.77-15.452h30.19v-30.19h-30.19zm33.77-30.19h.01z" fill="#6f6571"/></g><g><path d="m184.703 345.595h-37.349c-6.547 0-11.873-5.326-11.873-11.873v-37.35c0-6.547 5.326-11.873 11.873-11.873h37.349c6.547 0 11.873 5.326 11.873 11.873v37.35c0 6.546-5.325 11.873-11.873 11.873zm-33.769-15.453h30.19v-30.19h-30.19zm33.769-30.19h.01z" fill="#6f6571"/></g><g><path d="m274.675 345.595h-37.35c-6.547 0-11.873-5.326-11.873-11.873v-37.35c0-6.547 5.326-11.873 11.873-11.873h37.35c6.547 0 11.873 5.326 11.873 11.873v37.35c0 6.546-5.326 11.873-11.873 11.873zm-33.771-15.453h30.191v-30.19h-30.191zm33.771-30.19h.01z" fill="#6f6571"/></g><g><path d="m364.617 345.595h-37.349c-6.547 0-11.873-5.326-11.873-11.873v-37.35c0-6.547 5.326-11.873 11.873-11.873h37.349c6.547 0 11.873 5.326 11.873 11.873v37.35c0 6.546-5.326 11.873-11.873 11.873zm-33.77-15.453h30.19v-30.19h-30.19zm33.77-30.19h.01z" fill="#6f6571"/></g><g><path clip-rule="evenodd" d="m424.365 376.94h73.648v81.328h-73.648z" fill="#9fd4fe" fill-rule="evenodd"/></g><g><path clip-rule="evenodd" d="m475.264 458.268h22.748v-81.328h-22.748v21.552z" fill="#72bffc" fill-rule="evenodd"/></g><g><path clip-rule="evenodd" d="m13.959 376.94h73.677v81.328h-73.677z" fill="#9fd4fe" fill-rule="evenodd"/></g><g><path clip-rule="evenodd" d="m64.858 458.268h22.777v-81.328h-22.777v21.552z" fill="#72bffc" fill-rule="evenodd"/></g><g><path clip-rule="evenodd" d="m190.924 413.381h65.066v98.619h-65.066z" fill="#9fd4fe" fill-rule="evenodd"/></g><g><path clip-rule="evenodd" d="m255.99 413.381h65.056v98.619h-65.056z" fill="#9fd4fe" fill-rule="evenodd"/></g><g><path clip-rule="evenodd" d="m190.923 413.385h130.124v20.179h-130.124z" fill="#72bffc" fill-rule="evenodd"/></g><g><path clip-rule="evenodd" d="m407.486 135.614v5.519c0 2.628-2.161 4.789-4.789 4.789h21.668 14.105c2.628 0 4.789-2.161 4.789-4.789v-42.313c0-2.657-2.161-4.789-4.789-4.789h-35.773c2.628 0 4.789 2.132 4.789 4.789z" fill="#5d5360" fill-rule="evenodd"/></g><g><path clip-rule="evenodd" d="m232.39 166.831c7.505 2.161 15.419 3.3 23.595 3.3 8.206 0 16.12-1.139 23.624-3.3 13.667-3.942 25.931-11.243 35.831-20.909h-.029c3.271-3.183 6.278-6.629 8.994-10.308 8.79-11.856 14.572-26.107 16.207-41.584.292-2.949.438-5.957.438-8.965.001-46.985-38.078-85.065-85.065-85.065-2.044 0-4.059.058-6.074.204 32.443 12.002 55.542 43.219 55.542 79.809 0 21.259-7.797 40.708-20.675 55.601-14.367 16.616-35.043 27.625-58.317 29.26 1.958.731 3.914 1.373 5.929 1.957z" fill="#f76672" fill-rule="evenodd"/></g><g><path clip-rule="evenodd" d="m64.858 204.707h22.778v40.094h-22.778z" fill="#5d5360" fill-rule="evenodd"/></g><g><path clip-rule="evenodd" d="m479.323 208.766v31.976c0 2.249-1.84 4.059-4.059 4.059h22.748 9.9c2.249 0 4.088-1.811 4.088-4.059v-31.976c0-2.249-1.84-4.059-4.088-4.059h-32.648c2.219 0 4.059 1.81 4.059 4.059z" fill="#5d5360" fill-rule="evenodd"/></g><path clip-rule="evenodd" d="m330.713 380.591h-149.456c-9.023 0-16.382 7.388-16.382 16.412 0 8.994 7.359 16.382 16.382 16.382h9.666 57.34v98.615h15.453v-98.615h57.332 9.666c9.023 0 16.412-7.388 16.412-16.382-.001-9.024-7.389-16.412-16.413-16.412z" fill="#6f6571" fill-rule="evenodd"/><g><path clip-rule="evenodd" d="m330.714 413.385c9.023 0 16.412-7.388 16.412-16.382 0-9.023-7.388-16.412-16.412-16.412h-32.297c21.551 0 21.551 32.794 0 32.794h22.632z" fill="#5d5360" fill-rule="evenodd"/></g></g></svg>